<svg width="64" height="64" viewBox="0 0 64 64" fill="none" xmlns="http://www.w3.org/2000/svg">
<path fill-rule="evenodd" clip-rule="evenodd" d="M53.8485 9.20347C47.9225 3.27147 40.0432 0.00300964 31.6479 0C14.35 0 0.270868 14.0776 0.263343 31.3815C0.260334 36.9132 1.70646 42.3125 4.45276 47.0707L0 63.3333L16.6373 58.9694C21.221 61.4704 26.3825 62.7871 31.6343 62.7886H31.6479C31.6464 62.7886 31.6494 62.7886 31.6479 62.7886C48.9443 62.7886 63.0249 48.7095 63.0309 31.4056C63.0339 23.0207 59.7729 15.1355 53.8485 9.20347ZM31.6479 57.4886H31.6373C26.9573 57.4871 22.3661 56.2291 18.3603 53.853L17.4077 53.2872L7.53463 55.877L10.1696 46.2506L9.54958 45.2635C6.93872 41.1102 5.5588 36.3098 5.56181 31.3815C5.56783 16.9999 17.2693 5.29847 31.6584 5.29847C38.6257 5.30148 45.1747 8.01768 50.1 12.949C55.0252 17.8788 57.7354 24.4337 57.7324 31.4026C57.7264 45.7871 46.0249 57.4886 31.6479 57.4886ZM45.9557 37.9531C45.1717 37.5603 41.3163 35.6642 40.597 35.4024C39.8777 35.1405 39.3555 35.0096 38.8334 35.7951C38.3112 36.5807 36.8079 38.3473 36.3504 38.8695C35.893 39.3932 35.4355 39.4579 34.6515 39.0651C33.8675 38.6724 31.3409 37.8447 28.3448 35.1736C26.0138 33.094 24.4398 30.5268 23.9823 29.7413C23.5248 28.9557 23.9342 28.5314 24.3254 28.1416C24.6775 27.7895 25.1094 27.2252 25.5022 26.7677C25.8949 26.3103 26.0243 25.9822 26.2862 25.46C26.548 24.9364 26.4171 24.4789 26.2215 24.0861C26.0259 23.6934 24.4578 19.8335 23.8032 18.264C23.1667 16.7351 22.5196 16.9428 22.0396 16.9172C21.5821 16.8946 21.0599 16.8901 20.5363 16.8901C20.0141 16.8901 19.1639 17.0857 18.4446 17.8712C17.7253 18.6567 15.6998 20.5543 15.6998 24.4127C15.6998 28.2725 18.5093 32.0015 18.902 32.5252C19.2948 33.0488 24.4322 40.9687 32.2979 44.3666C34.1684 45.1747 35.6296 45.6577 36.7688 46.0189C38.6468 46.6163 40.3563 46.532 41.7076 46.3304C43.2139 46.1047 46.3469 44.4328 47 42.6014C47.6531 40.7701 47.6531 39.199 47.4575 38.8725C47.2634 38.5414 46.7397 38.3458 45.9557 37.9531Z" fill="#808080"/>
</svg>
