<svg width="18" height="18" viewBox="0 0 18 18" fill="none" xmlns="http://www.w3.org/2000/svg">
<path fill-rule="evenodd" clip-rule="evenodd" d="M9.6 0.8C9.6 0.358172 9.24183 0 8.8 0C8.35817 0 8 0.358172 8 0.8V7.99951H0.799999C0.358171 7.99951 0 8.35768 0 8.79951C0 9.24134 0.358171 9.59951 0.799999 9.59951H8V16.8C8 17.2418 8.35817 17.6 8.8 17.6C9.24183 17.6 9.6 17.2418 9.6 16.8V9.59951H16.8C17.2418 9.59951 17.6 9.24134 17.6 8.79951C17.6 8.35768 17.2418 7.99951 16.8 7.99951H9.6V0.8Z" fill="#24D366"/>
</svg>
